<svg xmlns="http://www.w3.org/2000/svg" width="40px" viewBox="0 0 100 100">
<path d="M62.58 51H58.1l-1.02-3.08C64.01 45.42 69 38.79 69 31v-8c0-9.93-8.08-18-18-18h-2c-9.93 0-18 8.07-18 18v8c0 7.79 4.98 14.42 11.91 16.92L41.89 51h-4.47C26.71 51 18 59.95 18 70.95v17.84c0 3.42 2.63 6.21 5.87 6.21h52.26c3.23 0 5.87-2.79 5.87-6.21V70.95C82 59.95 73.28 51 62.58 51zM49 9h2c1.02 0 2.02.12 2.98.33C53.8 16.89 47.61 23 40 23h-5c0-7.72 6.28-14 14-14zM35 31v-4h5c9.3 0 16.98-7.1 17.9-16.16C62.13 13.25 65 17.79 65 23v8c0 7.72-6.28 14-14 14h-2c-7.72 0-14-6.28-14-14zm13 60H23.87c-1.03 0-1.87-.99-1.87-2.21V70.95c0-7.21 4.64-13.31 11-15.28v10.62c-2.89.87-5 3.54-5 6.71v5a2 2 0 1 0 4 0v-5c0-1.66 1.34-3 3-3 1.65 0 3 1.34 3 3v5a2 2 0 1 0 4 0v-5c0-3.17-2.12-5.84-5-6.71V55.02c.14 0 .27-.02.42-.02h3.85c.09.15.19.29.31.41L48 61.83V91zm-2.72-37.54 1.54-4.61c.71.09 1.44.15 2.18.15h2c.73 0 1.46-.06 2.17-.15l1.54 4.61L50 58.17l-4.72-4.71zM78 88.79c0 1.22-.84 2.21-1.87 2.21H52V61.83l6.41-6.42c.13-.12.23-.26.31-.41h3.86c.14 0 .28.02.42.02v11.27c-2.89.87-5 3.54-5 6.71 0 3.86 3.14 7 7 7s7-3.14 7-7c0-3.17-2.12-5.84-5-6.71V55.67c6.35 1.97 11 8.07 11 15.28v17.84zM65 70c1.65 0 3 1.34 3 3 0 1.65-1.35 3-3 3-1.66 0-3-1.35-3-3 0-1.66 1.34-3 3-3z"/></svg>