<svg xmlns="http://www.w3.org/2000/svg" data-name="Layer 3" width="40px" viewBox="0 0 64 64">
<path d="M53,48A13.23,13.23,0,0,0,42.391,35.059l-2.858-.572L38,33.465V31.208A11.08,11.08,0,0,0,41.786,27H43a3.991,3.991,0,0,0,2.332-7.236c.166-.69.3-1.391.4-2.094A.989.989,0,0,0,46,17V13.191l5.388-2.269a1,1,0,0,0,0-1.844l-19-8a1,1,0,0,0-.776,0l-19,8a1,1,0,0,0,0,1.844l.388.163v6.193a2,2,0,1,0,2,0V11.927l3,1.264V17a.975.975,0,0,0,.123.455c.035.209.065.419.116.624l.423,1.691A3.99,3.99,0,0,0,21,27h1.214A11.08,11.08,0,0,0,26,31.208v2.257l-1.533,1.022-2.857.572A13.23,13.23,0,0,0,11,48V63h2V48a11.179,11.179,0,0,1,2.622-7.181A32.213,32.213,0,0,0,31.553,58.9a1,1,0,0,0,.894,0A32.214,32.214,0,0,0,48.378,40.82,11.174,11.174,0,0,1,51,48V63h2ZM43.831,37.555l-.09.359a23.271,23.271,0,0,1-8.648,13.008l-1.037-5.7L34.8,44.1l.418.523A1,1,0,0,0,36,45a.924.924,0,0,0,.1-.006,1,1,0,0,0,.79-.547l3.84-7.68L42,37.02A11.073,11.073,0,0,1,43.831,37.555ZM32,40.6l1.49,1.862L32.465,44h-.93L30.51,42.463ZM31.835,46h.33l1.117,6.142c-.419.256-.844.5-1.282.734-.438-.231-.863-.478-1.282-.734Zm3.97-3.845L33.443,39.2a18.912,18.912,0,0,0,3.813-3.831l1.455.971ZM20,16v-4.22l2.389-.6a39.792,39.792,0,0,1,19.22,0l2.391.6V16a39.936,39.936,0,0,0-12,1.945A39.936,39.936,0,0,0,20,16Zm23,9h-.426A10.966,10.966,0,0,0,43,22c0-.334-.016-.667-.033-1H43a2,2,0,0,1,0,4Zm0-6h-.242c-.05-.32-.1-.64-.167-.957.355-.016.71-.023,1.065-.03-.061.346-.135.689-.213,1.032A3.8,3.8,0,0,0,43,19ZM15.577,10,32,3.085,48.423,10,46,11.02V11a1,1,0,0,0-.757-.97L42.1,9.243a41.815,41.815,0,0,0-20.192,0l-3.146.787A1,1,0,0,0,18,11v.02Zm4.707,8.012c.375.006.75.014,1.125.031-.066.317-.117.637-.167.957H21a4.059,4.059,0,0,0-.458.046ZM21,25a2,2,0,0,1,0-4h.033c-.017.333-.033.666-.033,1a10.966,10.966,0,0,0,.426,3Zm2-3a17.48,17.48,0,0,1,.428-3.807,37.966,37.966,0,0,1,8.256,1.755,1,1,0,0,0,.632,0,37.966,37.966,0,0,1,8.256-1.755A17.48,17.48,0,0,1,41,22a9,9,0,0,1-18,0Zm9,11a10.927,10.927,0,0,0,4-.764v1.436a16.929,16.929,0,0,1-4,4.086,16.929,16.929,0,0,1-4-4.086V32.236A10.927,10.927,0,0,0,32,33Zm-5.256,2.372A18.912,18.912,0,0,0,30.557,39.2L28.2,42.155l-2.906-5.812ZM22,37.02l1.263-.253,3.84,7.68a1,1,0,0,0,.79.547A.924.924,0,0,0,28,45a1,1,0,0,0,.781-.375L29.2,44.1l.745,1.117-1.037,5.7A23.281,23.281,0,0,1,20.258,37.91l-.089-.355A11.085,11.085,0,0,1,22,37.02ZM32,56.877A30.2,30.2,0,0,1,17.219,39.263a11.225,11.225,0,0,1,1.119-.8A25.278,25.278,0,0,0,31.553,54.9a1,1,0,0,0,.894,0A25.274,25.274,0,0,0,45.663,38.466a11.156,11.156,0,0,1,1.118.8A30.2,30.2,0,0,1,32,56.877Z"/><rect width="2" height="10" x="44" y="53"/><rect width="2" height="10" x="18" y="53"/></svg>